<svg xmlns="http://www.w3.org/2000/svg" xmlns:xlink="http://www.w3.org/1999/xlink" viewBox="0 0 190 100"><defs><style>#fleur{-webkit-animation:fade 5s 3.2s infinite alternate;-moz-animation:fade 5s 3.2s infinite alternate;-o-animation:fade 5s 3.2s infinite alternate;-ms-animation:fade 5s 3.2s infinite alternate;animation:fade 5s 3.2s infinite alternate}@-webkit-keyframes fade{30%,70%{opacity:1}45%,55%{opacity:.1}50%{opacity:.4}}@-moz-keyframes fade{40%,46%{opacity:1}42%,45%{opacity:.1}43%{opacity:.4}}@-o-keyframes fade{40%,46%{opacity:1}42%,45%{opacity:.1}43%{opacity:.4}}@keyframes fade{40%,46%{opacity:1}42%,45%{opacity:.1}43%{opacity:.4}}.cls-1{isolation:isolate}.cls-2{opacity:0}.cls-3{fill:#fd0036}.cls-4{fill:url(#linear-gradient)}.cls-10,.cls-11,.cls-12,.cls-13,.cls-14,.cls-15,.cls-16,.cls-17,.cls-5,.cls-6,.cls-7,.cls-8,.cls-9{mix-blend-mode:hard-light}.cls-5{fill:url(#radial-gradient)}.cls-6{fill:url(#radial-gradient-2)}.cls-7{fill:url(#radial-gradient-3)}.cls-8{fill:url(#radial-gradient-4)}.cls-9{fill:#ebebeb;opacity:.5}.cls-10{fill:url(#radial-gradient-5)}.cls-11{fill:url(#radial-gradient-6)}.cls-12{fill:url(#radial-gradient-7)}.cls-13{fill:url(#radial-gradient-8)}.cls-14{fill:url(#radial-gradient-9)}.cls-15{fill:url(#radial-gradient-10)}.cls-16{fill:url(#radial-gradient-11)}.cls-17{fill:url(#radial-gradient-12)}</style><linearGradient id="linear-gradient" x1="41.72" y1="69.19" x2="148.26" y2="69.19" gradientUnits="userSpaceOnUse"><stop offset="0" stop-color="#1c1c1b"/><stop offset=".5" stop-color="#c4c4c4"/><stop offset="1" stop-color="#1c1c1b"/></linearGradient><radialGradient id="radial-gradient" cx="650.29" cy="1310.09" r="14.34" gradientTransform="matrix(1.56 0 0 .37 -872.77 -418.14)" gradientUnits="userSpaceOnUse"><stop offset="0" stop-color="#fce292"/><stop offset=".29" stop-color="#d6c591" stop-opacity=".65"/><stop offset=".54" stop-color="#b8ae90" stop-opacity=".37"/><stop offset=".75" stop-color="#a29d90" stop-opacity=".17"/><stop offset=".91" stop-color="#94938f" stop-opacity=".05"/><stop offset="1" stop-color="#8f8f8f" stop-opacity="0"/></radialGradient><radialGradient id="radial-gradient-2" cx="592" cy="1515.98" r="14.34" gradientTransform="matrix(1.47 0 0 .34 -735.41 -441.46)" xlink:href="#radial-gradient"/><radialGradient id="radial-gradient-3" cx="135.42" cy="72.79" r="5.54" gradientUnits="userSpaceOnUse"><stop offset="0" stop-color="#c1aefd"/><stop offset=".16" stop-color="#c0aefc" stop-opacity=".99"/><stop offset=".29" stop-color="#beacf7" stop-opacity=".95"/><stop offset=".41" stop-color="#bbaaf0" stop-opacity=".88"/><stop offset=".52" stop-color="#b6a7e5" stop-opacity=".78"/><stop offset=".63" stop-color="#b0a3d8" stop-opacity=".66"/><stop offset=".74" stop-color="#a89fc7" stop-opacity=".51"/><stop offset=".84" stop-color="#a099b3" stop-opacity=".33"/><stop offset=".94" stop-color="#95939d" stop-opacity=".13"/><stop offset="1" stop-color="#8f8f8f" stop-opacity="0"/></radialGradient><radialGradient id="radial-gradient-4" cx="140.14" cy="68.45" r="5.54" xlink:href="#radial-gradient-3"/><radialGradient id="radial-gradient-5" cx="1254.03" cy="-260.99" r="10.85" gradientTransform="matrix(4.6 0 0 1.67 -5628.57 507.71)" gradientUnits="userSpaceOnUse"><stop offset="0" stop-color="#aea2d7"/><stop offset=".19" stop-color="#a79dc6" stop-opacity=".76"/><stop offset=".48" stop-color="#9d97af" stop-opacity=".44"/><stop offset=".72" stop-color="#95939d" stop-opacity=".2"/><stop offset=".9" stop-color="#919093" stop-opacity=".05"/><stop offset="1" stop-color="#8f8f8f" stop-opacity="0"/></radialGradient><radialGradient id="radial-gradient-6" cx="1254.03" cy="293.62" r="10.85" gradientTransform="matrix(4.6 0 0 .74 -5628.57 -147.21)" xlink:href="#radial-gradient-5"/><radialGradient id="radial-gradient-7" cx="2539.88" cy="1310.09" r="14.34" gradientTransform="matrix(-1.56 0 0 .37 4007.88 -418.14)" xlink:href="#radial-gradient"/><radialGradient id="radial-gradient-8" cx="2595.97" cy="1515.98" r="14.34" gradientTransform="matrix(-1.47 0 0 .34 3870.51 -441.46)" xlink:href="#radial-gradient"/><radialGradient id="radial-gradient-9" cx="3080.52" cy="72.79" r="5.54" gradientTransform="matrix(-1 0 0 1 3135.11 0)" xlink:href="#radial-gradient-3"/><radialGradient id="radial-gradient-10" cx="3085.25" cy="68.45" r="5.54" gradientTransform="matrix(-1 0 0 1 3135.11 0)" xlink:href="#radial-gradient-3"/><radialGradient id="radial-gradient-11" cx="1894.25" cy="-260.99" r="10.85" gradientTransform="matrix(-4.6 0 0 1.67 8763.67 507.71)" xlink:href="#radial-gradient-5"/><radialGradient id="radial-gradient-12" cx="1894.25" cy="293.62" r="10.85" gradientTransform="matrix(-4.6 0 0 .74 8763.67 -147.21)" xlink:href="#radial-gradient-5"/></defs><title>Asset 2</title><g class="cls-1"><g id="Layer_2" data-name="Layer 2"><g id="Layer_3" data-name="Layer 3"><path class="cls-2" d="M0 0h190v100H0z"/><g id="Group-11"><path class="cls-3" d="M55.9 42.35a1.41 1.41 0 0 1-1.23-.72l-2-3.59a1.41 1.41 0 0 1 .92-2.04l20.87-4.39a1.42 1.42 0 0 1 .29 0h20.93a1.41 1.41 0 0 1 0 2.81H74.89L56 38.33l1.08 1.92a1.41 1.41 0 0 1-1.23 2.1z" id="Path-211"/><path class="cls-3" d="M134.1 42.35a1.41 1.41 0 0 1-1.23-2.1l1.13-1.92-18.85-4H95.64a1.41 1.41 0 0 1 0-2.81h19.62a1.42 1.42 0 0 1 .29 0L136.41 36a1.41 1.41 0 0 1 .94 2.07l-2 3.59a1.41 1.41 0 0 1-1.25.69z" id="Path-211-2" data-name="Path-211"/></g><path class="cls-4" d="M148.08 66.45a31 31 0 0 0-.49-4l-.33-.5s-.24-.17-.75-.47c0-.09-.07-.18-.11-.28a2.91 2.91 0 0 0-.13-.28l-.08-.15-.11-.16v-.13l-.12-.15-.24-.27c-.16-.18-.34-.36-.52-.54-.37-.37-.78-.74-1.25-1.12l-.37-.29-.21-.15-.12-.08h-.06l-.13-.06-.14-.06h-3.18c-.66 0-1.34 0-2 .08h-.24v-.39c0-.27 0-.53-.06-.8s-.05-.53-.09-.79-.07-.53-.11-.79-.08-.53-.13-.79-.1-.52-.16-.79-.12-.52-.18-.78-.14-.52-.21-.78l-.12-.39c0-.13-.07-.25-.12-.38s-.18-.53-.28-.78-.2-.51-.3-.76-.22-.5-.34-.75-.24-.49-.38-.73-.27-.48-.42-.72l-.23-.36-.12-.18-.14-.2-.23-.31-.35-.07h-.35l-.33-.05-.66-.09-.66-.07H128.23l-.66.05-.64.08-.65.09-.32.05-.32.06-.64.14-.32.08-.19.05-.33-.36-.39-.41-.4-.41c-.27-.28-.56-.56-.85-.83a20 20 0 0 0-1.86-1.53 18.56 18.56 0 0 0-2-1.3 20 20 0 0 0-4.48-1.77 22 22 0 0 0-2.34-.48c-.39-.07-.79-.11-1.18-.16l-1.16-.1-9-.69h-.52l-.46.37-.07.06-.09.07-.19.12-.15.08H91.14l-.21-.35-.19-.12-.09-.07-.07-.06-.46-.37h-.52l-9 .69H80l-.56.05c-.39 0-.81.09-1.2.16a22 22 0 0 0-2.34.48 20 20 0 0 0-4.48 1.77 18.51 18.51 0 0 0-2 1.3 20 20 0 0 0-1.86 1.53c-.29.27-.58.55-.85.83l-.4.41-.19.2-.12.2-.06.06v.05l-.3.33-.19-.05-.32-.08-.64-.14-.32-.06-.32-.05-.72-.06-.64-.08-.66-.05H58.53l-.66.07-.66.09-.33.05h-.35l-.35.07-.23.31-.14.2-.12.18-.23.36q-.22.36-.42.72c-.13.24-.26.49-.38.73s-.23.5-.34.75-.21.5-.3.76-.19.52-.28.78-.08.25-.12.38l-.12.39c-.07.26-.15.52-.21.78s-.13.52-.18.78-.1.52-.16.79-.09.53-.13.79-.08.53-.11.79l-.09.79c-.03.26 0 .53-.06.8s0 .26 0 .39h-.24c-.67 0-1.35-.07-2-.08s-1.32 0-2 0H47.14l-.14.06-.13.06h-.06l-.12.08-.21.15-.37.29c-.47.38-.88.76-1.25 1.12-.18.18-.36.36-.52.54l-.24.27-.12.15v.13l-.11.16-.08.15a2.87 2.87 0 0 0-.13.28c0 .1-.08.19-.11.28-.51.3-.73.45-.75.47l-.33.5a31.12 31.12 0 0 0-.49 4 124.32 124.32 0 0 0 0 13.73 65.87 65.87 0 0 0 .88 9.36h-.38v.23a3.93 3.93 0 0 0 0 .47v.46a5.78 5.78 0 0 0 1.06 2.6 6.26 6.26 0 0 0 .63.74 7.15 7.15 0 0 0 .74.64 8.32 8.32 0 0 0 1.69 1c.3.13.6.24.9.34l.45.14.45.12.87.22.86.2.86.19.86.19.86.18a7.24 7.24 0 0 0 .86.12l.87.06.86.08 1.7.3 3.45.32q3.45.31 6.91.59l6.91.54c2.3.17 4.61.33 6.92.48l1.74.1h1.76l3.46.1 3.46.1 1.73.05H95.2l6.91-.2 3.46-.1 1.76-.08 1.74-.1c2.31-.14 4.62-.31 6.92-.48l6.91-.54q3.45-.28 6.91-.59l3.45-.32 1.73-.17c.58-.06 1.16-.08 1.73-.13a14.08 14.08 0 0 0 1.72-.31l1.72-.38.87-.21.44-.11.42-.11a10.55 10.55 0 0 0 1.83-.65 7.9 7.9 0 0 0 1.66-1 7 7 0 0 0 .71-.67 6.36 6.36 0 0 0 .59-.77 6.17 6.17 0 0 0 .79-1.72 6.28 6.28 0 0 0 .19-.91v-.46a4.43 4.43 0 0 0 0-.47v-.28l-.22.06h-.16a68.78 68.78 0 0 0 .84-9.14 124.26 124.26 0 0 0-.04-13.59zm-3.51-4a6.51 6.51 0 0 1 .84.39l.57.34c.08.49.24 1.57.39 3.44.12 1.47.18 3.43.18 5.64l-.93 1.11-.61.73-.17.2v.05l-.09.1-.37.41a9 9 0 0 1-2 1.5 14 14 0 0 1-2.69 1.14c-1 .32-2.09.58-3.25.83s-2.39.49-3.67.73l-1.43.27c.5-.84 1.16-1.94 1.41-2.34a10.88 10.88 0 0 1 2.29-.48c.71-.11 1.51-.23 2.43-.4a6.39 6.39 0 0 0 4-2.17 11.61 11.61 0 0 0 2.12-4.85 40.75 40.75 0 0 0 .98-6.67zm-13 13.33c.22-1.35.41-2.58.41-3s0-.47 1-1.08l.38-.22c2.49-1.42 5.15-3.11 6-4.9.93-2 1.39-3 1.83-4.07.16-.37.87-.52 1.5-.52h.17a39.2 39.2 0 0 1-1 6.71c-.93 3.81-2.12 5.26-4.74 5.74-.9.17-1.68.29-2.37.39-1.61.27-2.61.42-3.17.91zm10.65-16.11h-.06zm0 0zM125 47.06l.63.05.63.06.63.06.64.06.62.07.62.07.62.08.62.08.61.09.61.1.61.11.6.11h.18l.18.28.37.64.35.66.34.67.32.68c.11.23.21.45.31.68l.31.71.29.71.29.72.29.72.58 1.45.29.73.3.73.12.29-1.26.12-.5.06h-1.04a3.45 3.45 0 0 0-.35.09l-.32.12-.29.14-.26.16a5 5 0 0 0-.45.33 7 7 0 0 0-.72.68 15.56 15.56 0 0 0-1.07 1.31l-.43.59-.37.52a3 3 0 0 1-.64.69.64.64 0 0 1-.28.12.39.39 0 0 1-.23 0 .58.58 0 0 1-.14-.11.37.37 0 0 0 0 .06.56.56 0 0 0 .07.19.57.57 0 0 0 .26.23h.49a2.9 2.9 0 0 0 1.12-.46l.15-.09h.14l.28-.19.6-.43c.41-.3.84-.62 1.28-.93l.33-.22.33-.19a2.77 2.77 0 0 1 .62-.26H135.89l2-.1 2-.15 1.91-.19h.59l.18.08.37.18 1 .48-.36-.06c-1.1-.16-3.12 0-3.78 1.49-.44 1-.89 2.06-1.81 4-.71 1.53-4.15 3.49-5.28 4.14l-.4.23c-1.07.63-1.88 1.21-1.88 2.56 0 .15-.05.57-.14 1.16a5.65 5.65 0 0 1-.54.18 8.32 8.32 0 0 1-.86.17h-.88l-1.79.16-1.79.17-1.79.18-1.79.18-3.57.36-1.78.18-1.78.17-.89.08-.88.07-.88.05h-.9l-1.79.1-1.79.11-2.28.14 2.18-3.64 3.21-5.32 3.21-5.31.36-.59v.13a.5.5 0 0 1 0 .06.86.86 0 0 1 0 .17c0 .08-.05.1 0 .11H113h.53l.48-.08.51-.07h.54l1.18-.16c.79-.11 1.58-.19 2.37-.28l2.37-.28 2.37-.29 1.19-.15 1.2-.17H127.08a5.78 5.78 0 0 0 1.42-.59c.12-.07.24-.15.35-.23s.23-.17.34-.28a3.78 3.78 0 0 0 .6-.68l.13-.19.11-.2.05-.1v-.05l.06-.14.13-.29.07-.16V57.11c-.32-.41.78.73-.74-1.45l.59.56c-.38-.67-.75-1.32-1.13-2s-.77-1.3-1.17-2-.8-1.29-1.21-1.94l-.31-.48-.32-.48c-.21-.32-.44-.64-.66-1l-.35-.48-.18-.24-.09-.12-.09-.12zM92.38 84.39l-.23-.13-.18-.1-.18-.09-.36-.14a9.45 9.45 0 0 0-1.43-.31q-.67-.11-1.33-.17l-1.3-.12-1.28-.13-1.28-.14-2.54-.3-2.52-.3-4.93-.63a502.1 502.1 0 0 1-9.32-1.31c-1.68-.26-3.31-.53-4.87-.81-.26-1.67-.62-4-.82-5.56l.45.22a7.28 7.28 0 0 0 .87.3l.22.06.22.05h.45l1.76.36 1.76.36 1.77.35 1.77.34 1.77.32 1.77.31 1.78.29 1.79.28.9.13.91.12.91.1.89.09 3.58.35 1.79.16 1.49.14.24.15.51.29 1 1.7.81 1.33.81 1.33c-.2-.48-.42-1-.63-1.43s-.4-.85-.57-1.31l-.53-1.16H101.22l.42-.11-.53 1.16c-.22.47-.43.95-.64 1.42s-.42.95-.63 1.43l.81-1.33.81-1.33 1-1.7.51-.29.24-.16 3.28-.3 1.79-.17 1.79-.17.89-.09.91-.1.9-.12.9-.13 1.78-.28 1.78-.29 1.77-.31 1.77-.32 1.77-.33 1.77-.35 1.76-.36 1.76-.36.44-.1.22-.05.22-.06a7.27 7.27 0 0 0 .87-.3l.42-.2c-.23 1.48-.64 3.82-1 5.57l-.39.07-.52.09-.53.09-1.06.18-2.18.35c-3 .45-6.08.88-9.32 1.31l-4.93.63-5.06.6-1.28.14-1.28.13-1.29.12-.66.08-.67.1a9.44 9.44 0 0 0-1.38.32l-.36.14-.18.09-.18.1-.23.13h-5.28zm-6.22-9.48l-.69-1.4-.7-1.39-.71-1.39-.72-1.38-.71-1.35-.73-1.4-.73-1.37-.74-1.37-.66-1.21H110.23l-.64 1.18q-.74 1.37-1.47 2.74c-.49.92-1 1.83-1.45 2.75l-.72 1.38-.71 1.39-.7 1.39-.69 1.4-.68 1.4-.06.13h-.54l-.27.19-.08.05-.09.06-.19.12-.38.21-.36.16-.28.08h-1.86L95 77.3h-6.15l-.36-.16-.38-.21-.19-.12-.09-.06-.08-.05-.27-.18h-.55zM98.88 39.1zM65.64 50.92l.31-.46c.2-.31.41-.6.62-.9l.32-.43.16-.21.08-.11.08-.09.3-.37.37-.41.1-.11.2-.2.38-.39c.25-.26.51-.5.76-.74A17.31 17.31 0 0 1 71 45.1a15.85 15.85 0 0 1 1.74-1.1 17.32 17.32 0 0 1 3.87-1.53 19.36 19.36 0 0 1 2.07-.47c.35-.06.68-.09 1-.14l.56-.05h.54l8.47-.65.28.18a4.16 4.16 0 0 0 .46.23l.28.1a2.74 2.74 0 0 0 .4.1H99.34a3.07 3.07 0 0 0 .6-.19 4.16 4.16 0 0 0 .46-.23l.28-.18 8.47.65 1.08.09c.35 0 .7.08 1.05.14a19.36 19.36 0 0 1 2.06.43 17.33 17.33 0 0 1 3.9 1.52 15.88 15.88 0 0 1 1.76 1.1 17.29 17.29 0 0 1 1.61 1.33c.26.24.51.49.76.74l.38.39.39.4.32.35.32.4.08.1.08.11.16.21.32.43c.21.3.42.59.62.9l.31.46.3.46c.4.62.79 1.25 1.18 1.88s.77 1.27 1.14 1.91l.78 1.35v.12a1.08 1.08 0 0 1-.19.21l-.12.1-.15.09a3.12 3.12 0 0 1-.77.31h-1.01l-1.16.16-1.17.15-2.35.28-2.36.27c-.79.09-1.57.19-2.36.25l-1.18.11h-.64l-.66.14c-.22.06-.44.12-.68.21l-.17.06-.18.07-.18.08-.19.09-.19.1-.2.13-.1.07-.11.08-.1.09h-.05l-.06.05a2.48 2.48 0 0 0-.26.3h-.21l-1.06.09H80.22l-1-.09H79a2.41 2.41 0 0 0-.27-.31l-.06-.05h-.05l-.1-.09-.1-.08-.1-.07-.2-.13-.19-.1-.19-.09-.18-.08-.18-.07-.17-.06c-.23-.09-.45-.15-.68-.21l-.39.3h-.96L74 58.78l-1.18-.12-1.18-.13-2.36-.27-2.36-.26-1.17-.15-.58-.08-.56-.08a8 8 0 0 1-1-.2 3.12 3.12 0 0 1-.77-.31l-.15-.09-.12-.1a1.09 1.09 0 0 1-.19-.21v-.13l.62-1.48c.37-.64.76-1.28 1.14-1.91s.78-1.26 1.18-1.88zm-17.88 8.72h-.06zm0 0zm-.61.27l.37-.18.18-.08h.59l1.91.19 2 .15 2 .1H55.81a2.78 2.78 0 0 1 .62.26l.33.19.33.22c.44.3.87.63 1.28.93l.6.43.28.19h.14l.15.09a2.9 2.9 0 0 0 1.12.46h.49a.57.57 0 0 0 .26-.23.56.56 0 0 0 .07-.19.38.38 0 0 0 0-.06.58.58 0 0 1-.14.11.39.39 0 0 1-.23 0 .64.64 0 0 1-.28-.12 3 3 0 0 1-.64-.69l-.37-.52-.43-.59a15.52 15.52 0 0 0-1.07-1.31 7 7 0 0 0-.72-.68 5 5 0 0 0-.45-.33l-.26-.16-.29-.14-.32-.12a3.48 3.48 0 0 0-.35-.09h-1.04l-.5-.06-1.26-.12.12-.29.3-.73.29-.73.58-1.45.29-.72.29-.72.29-.71.31-.71c.1-.23.2-.45.31-.68l.32-.68.34-.67.35-.66.37-.64.18-.28h.18l.6-.11.61-.11.61-.1.53.03.62-.08.62-.08.62-.07.62-.07.64-.06.63-.06.63-.06.63-.05h.07l-.09.12-.09.12-.18.24-.35.48c-.22.32-.45.64-.66 1l-.32.48-.31.48c-.42.64-.82 1.29-1.21 1.94s-.78 1.3-1.17 2-.76 1.31-1.13 2l.59-.56c-1.52 2.17-.42 1-.74 1.45V57.25l.07.16.13.29.07.14V58.06l.07.12.14.22a3.78 3.78 0 0 0 .6.68c.11.1.22.19.34.28s.23.16.35.23a5.78 5.78 0 0 0 1.42.59 10.49 10.49 0 0 0 1.32.26l.61.09.6.08 1.19.15 2.37.29 2.37.28 1.18.13 1.18.14 1.18.15h1.33l.48.08H76.9l.1.17v-.1a.83.83 0 0 1 0-.16v-.14l.34.56 3.21 5.31 3.21 5.32 2.18 3.64h-.49l-1.8-.11L80 76h-.9l-.89-.05-.87-.07-.89-.08-1.78-.17-1.78-.18-3.57-.36-1.79-.18-1.79-.18-1.79-.17-1.8-.16a10 10 0 0 1-1.74-.26 5.5 5.5 0 0 1-.56-.19c-.07-.57-.12-1-.12-1.15 0-1.35-.82-1.93-1.88-2.56l-.4-.23c-1.13-.64-4.56-2.6-5.28-4.14-.92-2-1.37-3-1.81-4-.66-1.51-2.69-1.65-3.78-1.49l-.36.06zm11.2 15.77a7.29 7.29 0 0 0-3.12-.84c-.69-.11-1.48-.22-2.37-.39-2.63-.45-3.86-1.92-4.75-5.73a39.32 39.32 0 0 1-1-6.71c.66 0 1.49.11 1.66.51.44 1 .9 2.08 1.83 4.07.83 1.79 3.49 3.48 6 4.9l.38.22c1 .61 1 .75 1 1.08s.17 1.57.36 2.9zm-14.74-9.1c.15-1.87.31-2.95.39-3.44l.57-.34a6.5 6.5 0 0 1 .84-.39 40.77 40.77 0 0 0 1 6.7A11.61 11.61 0 0 0 48.56 74a6.39 6.39 0 0 0 4 2.17c.92.17 1.72.29 2.43.4a10.89 10.89 0 0 1 2.29.47c.23.38.81 1.43 1.28 2.31l-1.3-.24c-1.28-.24-2.51-.48-3.67-.73s-2.25-.51-3.25-.83a14 14 0 0 1-2.69-1.14 9 9 0 0 1-2-1.51c-.51-.55-.94-1.09-1.32-1.54l-.93-1.11c.03-2.25.1-4.25.21-5.67zm-.7 23.53l-.06-.22.08.32zm22.56 4.26c-3.93-.3-5.21-.44-6.14-.54l-.74-.08a2.64 2.64 0 0 0-2 .57l-.87-.08c.39-.22.6-.36.61-.37l.3-.38c0-.06 2.57-6.38 3.6-8.16.57-1 1.11-1 3.63-.79l1.63.14c2 .14 8.32.86 13.86 1.49 3.82.44 7.43.85 9.19 1 3.08.3 3.32 2.34 3.31 4.59v.96c0 .8.05 1.72-.27 2.05a1.12 1.12 0 0 1-.81.22c-2.23.01-20.33-.24-25.3-.63zm68-.05a2.64 2.64 0 0 0-2-.57l-.74.08c-.93.1-2.21.24-6.14.54-5 .38-23.08.63-25.29.63a1.12 1.12 0 0 1-.81-.22c-.33-.34-.3-1.25-.27-2.05v-.7-.26c0-2.25.23-4.29 3.31-4.59 1.76-.17 5.37-.58 9.19-1 5.54-.63 11.81-1.35 13.86-1.49l1.63-.14c2.51-.23 3.06-.19 3.63.79 1 1.78 3.58 8.1 3.6 8.16l.3.38s.22.15.61.37zm12.95-14.22c-.19 3.94-.51 10.53-2 12-1 1-4.06 1.36-5.75 1.38h-.1a5.48 5.48 0 0 1-2.4-.2 13.72 13.72 0 0 1-1.26-.67c-.5-1.23-2.62-6.43-3.61-8.13-1.17-2-2.8-1.86-5.26-1.64l-1.59.13c-2.08.14-8.38.86-13.93 1.5-3.81.44-7.42.85-9.16 1-4.89.48-4.86 4.55-4.85 6.3v.9c0 1.14-.08 2.44.75 3.3a2.45 2.45 0 0 0 1.41.7l-3.56.1-3.67-.11a2.45 2.45 0 0 0 1.4-.69c.83-.86.79-2.15.75-3.3v-.65-.25c0-1.74 0-5.82-4.85-6.3-1.75-.17-5.35-.58-9.16-1-5.58-.65-11.92-1.37-14-1.47L64 82.82c-2.46-.23-4.09-.38-5.26 1.64-1 1.7-3.11 6.9-3.61 8.13a13.73 13.73 0 0 1-1.26.67 5.48 5.48 0 0 1-2.4.2h-.1c-1.69 0-4.75-.41-5.75-1.38-1.48-1.44-1.8-8-2-12-.13-2.64-.19-5.32-.18-7.72l.79 1.07c.35.48.75 1 1.24 1.63a9.35 9.35 0 0 0 2 1.67A13.81 13.81 0 0 0 50.14 78a58.24 58.24 0 0 0 6.93 1.85l2 .44 1.93.41c1.39.29 2.82.55 4.3.82 3 .53 6.08 1 9.32 1.51 1.62.24 3.27.47 4.94.7l2.52.33 2.55.32 1.28.15 1.3.14 1.28.13q.63.06 1.25.16a8.17 8.17 0 0 1 1.16.27l.25.09.11.05.11.06.14.08.11.06.13.05h6.05a1.64 1.64 0 0 0 .27-.1l.11-.06.14-.08.11-.06.11-.05.25-.09a8.16 8.16 0 0 1 1.16-.27c.82-.13 1.66-.2 2.54-.29l1.29-.14 1.28-.15c1.71-.2 3.4-.42 5.07-.65s3.32-.46 4.94-.7c3.24-.48 6.36-1 9.32-1.51l2.19-.4 1.07-.21.53-.1.52-.11 1-.22.72-.16.25-.05 2-.43a58.25 58.25 0 0 0 7.18-1.79 13.8 13.8 0 0 0 2.72-1.31 9.34 9.34 0 0 0 2-1.67l.35-.43.08-.1v-.11l.15-.21.57-.77.79-1.07c.05 2.44-.01 5.13-.14 7.76zm.78 9.67v-.06z"/><g id="fleur"><ellipse class="cls-5" cx="140.76" cy="68.15" rx="22.35" ry="5.32"/><ellipse class="cls-6" cx="134.62" cy="73.27" rx="21.07" ry="4.87"/><circle class="cls-7" cx="135.42" cy="72.79" r="5.54"/><circle class="cls-8" cx="140.14" cy="68.45" r="5.54"/><circle class="cls-9" cx="139.96" cy="69.06" r="1.55" transform="rotate(-11.66 139.903 69.059)"/><circle class="cls-9" cx="140" cy="69.04" r="1.04" transform="rotate(-11.66 139.957 69.015)"/><circle class="cls-9" cx="140.9" cy="66.83" r="1.31" transform="rotate(-11.66 140.824 66.827)"/><circle class="cls-9" cx="140.93" cy="66.81" r=".88" transform="rotate(-11.66 140.878 66.783)"/><circle class="cls-9" cx="141.59" cy="65.07" r="1.14" transform="rotate(-11.66 141.547 65.07)"/><circle class="cls-9" cx="141.62" cy="65.05" r=".77" transform="rotate(-11.66 141.552 65.021)"/><circle class="cls-9" cx="134.97" cy="72.87" r="1.88"/><circle class="cls-9" cx="135.01" cy="72.85" r="1.26"/><circle class="cls-9" cx="137.87" cy="71.47" r="2.27" transform="rotate(-6.06 137.832 71.424)"/><circle class="cls-9" cx="137.92" cy="71.44" r="1.52" transform="rotate(-6.06 137.926 71.429)"/><ellipse class="cls-10" cx="140.11" cy="70.55" rx="49.89" ry="18.17"/><ellipse class="cls-11" cx="140.11" cy="70.55" rx="49.89" ry="8.04"/><ellipse class="cls-12" cx="49.24" cy="68.15" rx="22.35" ry="5.32"/><ellipse class="cls-13" cx="55.38" cy="73.27" rx="21.07" ry="4.87"/><circle class="cls-14" cx="54.58" cy="72.79" r="5.54"/><circle class="cls-15" cx="49.86" cy="68.45" r="5.54"/><circle class="cls-9" cx="50.04" cy="69.06" r="1.55" transform="rotate(-78.34 50.045 69.066)"/><circle class="cls-9" cx="50" cy="69.04" r="1.04" transform="rotate(-78.34 50.008 69.036)"/><circle class="cls-9" cx="49.1" cy="66.83" r="1.31" transform="rotate(-78.34 49.103 66.838)"/><circle class="cls-9" cx="49.07" cy="66.81" r=".88" transform="rotate(-78.5 48.943 66.77)"/><circle class="cls-9" cx="48.41" cy="65.07" r="1.14" transform="rotate(-78.34 48.41 65.07)"/><circle class="cls-9" cx="48.38" cy="65.05" r=".77" transform="rotate(-78.34 48.386 65.05)"/><circle class="cls-9" cx="55.03" cy="72.87" r="1.88"/><circle class="cls-9" cx="54.99" cy="72.85" r="1.26"/><circle class="cls-9" cx="52.13" cy="71.47" r="2.27" transform="rotate(-83.94 52.136 71.471)"/><circle class="cls-9" cx="52.08" cy="71.44" r="1.52" transform="rotate(-83.94 52.081 71.442)"/><ellipse class="cls-16" cx="49.89" cy="70.55" rx="49.89" ry="18.17"/><ellipse class="cls-17" cx="49.89" cy="70.55" rx="49.89" ry="8.04"/></g></g></g></g></svg>
